<svg width="30" height="30" viewBox="0 0 30 30" fill="none" xmlns="http://www.w3.org/2000/svg">
<path d="M21.6665 29.3333H2.99984C2.38123 29.3326 1.78817 29.0865 1.35075 28.6491C0.913329 28.2116 0.667255 27.6186 0.666504 27V2.99999C0.667255 2.38138 0.913329 1.78833 1.35075 1.3509C1.78817 0.913482 2.38123 0.667408 2.99984 0.666656H21.6665C22.2851 0.667408 22.8782 0.913482 23.3156 1.3509C23.753 1.78833 23.9991 2.38138 23.9998 2.99999V17.6667C23.9998 17.9319 23.8945 18.1862 23.7069 18.3738C23.5194 18.5613 23.2651 18.6667 22.9998 18.6667C22.7346 18.6667 22.4803 18.5613 22.2927 18.3738C22.1052 18.1862 21.9998 17.9319 21.9998 17.6667V2.99999C21.9988 2.91191 21.9633 2.82772 21.9011 2.76544C21.8388 2.70315 21.7546 2.66769 21.6665 2.66666H2.99984C2.91175 2.66769 2.82757 2.70315 2.76528 2.76544C2.70299 2.82772 2.66754 2.91191 2.6665 2.99999V27C2.66754 27.0881 2.70299 27.1722 2.76528 27.2345C2.82757 27.2968 2.91175 27.3323 2.99984 27.3333H21.6665C21.9171 27.2337 22.1966 27.2357 22.4457 27.3389C22.6948 27.4421 22.8938 27.6384 23.0005 27.8861C23.0524 28.0053 23.0801 28.1337 23.0818 28.2637C23.0836 28.3938 23.0594 28.5229 23.0108 28.6435C22.9621 28.7641 22.8899 28.8738 22.7984 28.9662C22.7069 29.0586 22.5978 29.1318 22.4777 29.1816C22.2195 29.2837 21.9441 29.3352 21.6665 29.3333Z" fill="#204131"/>
<path d="M18.333 8H6.33301C6.06779 8 5.81344 7.89464 5.6259 7.70711C5.43836 7.51957 5.33301 7.26522 5.33301 7C5.33301 6.73478 5.43836 6.48043 5.6259 6.29289C5.81344 6.10536 6.06779 6 6.33301 6H18.333C18.5982 6 18.8526 6.10536 19.0401 6.29289C19.2277 6.48043 19.333 6.73478 19.333 7C19.333 7.26522 19.2277 7.51957 19.0401 7.70711C18.8526 7.89464 18.5982 8 18.333 8Z" fill="#204131"/>
<path d="M18.333 13.3333H6.33301C6.06779 13.3333 5.81344 13.228 5.6259 13.0404C5.43836 12.8529 5.33301 12.5985 5.33301 12.3333C5.33301 12.0681 5.43836 11.8137 5.6259 11.6262C5.81344 11.4387 6.06779 11.3333 6.33301 11.3333H18.333C18.5982 11.3333 18.8526 11.4387 19.0401 11.6262C19.2277 11.8137 19.333 12.0681 19.333 12.3333C19.333 12.5985 19.2277 12.8529 19.0401 13.0404C18.8526 13.228 18.5982 13.3333 18.333 13.3333Z" fill="#204131"/>
<path d="M14.9997 18.6667H6.33301C6.06779 18.6667 5.81344 18.5613 5.6259 18.3738C5.43836 18.1862 5.33301 17.9319 5.33301 17.6667C5.33301 17.4014 5.43836 17.1471 5.6259 16.9596C5.81344 16.772 6.06779 16.6667 6.33301 16.6667H14.9997C15.2649 16.6667 15.5192 16.772 15.7068 16.9596C15.8943 17.1471 15.9997 17.4014 15.9997 17.6667C15.9997 17.9319 15.8943 18.1862 15.7068 18.3738C15.5192 18.5613 15.2649 18.6667 14.9997 18.6667Z" fill="#204131"/>
<path d="M13.6663 24H6.33301C6.06779 24 5.81344 23.8946 5.6259 23.7071C5.43836 23.5196 5.33301 23.2652 5.33301 23C5.33301 22.7348 5.43836 22.4804 5.6259 22.2929C5.81344 22.1054 6.06779 22 6.33301 22H13.6663C13.9316 22 14.1859 22.1054 14.3734 22.2929C14.561 22.4804 14.6663 22.7348 14.6663 23C14.6663 23.2652 14.561 23.5196 14.3734 23.7071C14.1859 23.8946 13.9316 24 13.6663 24Z" fill="#204131"/>
<path d="M22.9998 29.3333C21.7472 29.3333 20.5227 28.9619 19.4812 28.266C18.4397 27.5701 17.628 26.5809 17.1486 25.4237C16.6692 24.2664 16.5438 22.993 16.7882 21.7644C17.0326 20.5359 17.6358 19.4074 18.5215 18.5217C19.4072 17.6359 20.5357 17.0327 21.7643 16.7884C22.9928 16.544 24.2662 16.6694 25.4235 17.1488C26.5808 17.6281 27.5699 18.4399 28.2658 19.4814C28.9617 20.5229 29.3332 21.7474 29.3332 23C29.3313 24.6791 28.6634 26.2889 27.4761 27.4762C26.2888 28.6635 24.679 29.3314 22.9998 29.3333ZM22.9998 18.6667C22.1428 18.6667 21.305 18.9208 20.5924 19.397C19.8798 19.8731 19.3243 20.5499 18.9964 21.3417C18.6684 22.1335 18.5826 23.0048 18.7498 23.8454C18.917 24.686 19.3297 25.4581 19.9357 26.0641C20.5417 26.6701 21.3139 27.0829 22.1544 27.2501C22.995 27.4173 23.8663 27.3315 24.6581 27.0035C25.4499 26.6755 26.1267 26.1201 26.6029 25.4075C27.079 24.6948 27.3332 23.857 27.3332 23C27.3318 21.8511 26.8749 20.7497 26.0625 19.9373C25.2501 19.125 24.1487 18.668 22.9998 18.6667Z" fill="#204131"/>
<path d="M22.3334 25.3333C22.202 25.3335 22.0719 25.3077 21.9506 25.2574C21.8293 25.2071 21.7191 25.1334 21.6263 25.0404L20.293 23.707C20.1996 23.6143 20.1254 23.504 20.0747 23.3826C20.024 23.2611 19.9978 23.1309 19.9976 22.9992C19.9973 22.8676 20.0231 22.7373 20.0733 22.6156C20.1236 22.494 20.1974 22.3835 20.2904 22.2904C20.3835 22.1973 20.494 22.1235 20.6157 22.0733C20.7373 22.023 20.8677 21.9973 20.9993 21.9975C21.1309 21.9978 21.2612 22.024 21.3826 22.0747C21.5041 22.1254 21.6143 22.1996 21.7071 22.293L22.3334 22.9193L24.293 20.9596C24.4808 20.7732 24.7347 20.6689 24.9993 20.6693C25.2638 20.6698 25.5174 20.7751 25.7045 20.9622C25.8916 21.1493 25.9969 21.4029 25.9973 21.6674C25.9978 21.932 25.8934 22.1859 25.7071 22.3737L23.0404 25.0404C22.9477 25.1334 22.8375 25.2071 22.7161 25.2574C22.5948 25.3077 22.4647 25.3335 22.3334 25.3333Z" fill="#204131"/>
</svg>
